<?xml version="1.0" standalone="no"?>
<!DOCTYPE svg PUBLIC "-//W3C//DTD SVG 20010904//EN"
 "http://www.w3.org/TR/2001/REC-SVG-20010904/DTD/svg10.dtd">
<svg version="1.0" xmlns="http://www.w3.org/2000/svg"
 width="225.000000pt" height="225.000000pt" viewBox="0 0 225.000000 225.000000"
 preserveAspectRatio="xMidYMid meet">
<metadata>
Created by potrace 1.10, written by Peter Selinger 2001-2011
</metadata>
<g transform="translate(0.000000,225.000000) scale(0.100000,-0.100000)"
fill="#000000" stroke="none">
<path d="M1005 2209 c-411 -47 -765 -321 -905 -702 -53 -143 -64 -215 -65
-392 0 -184 12 -250 72 -395 68 -165 215 -352 368 -467 118 -88 305 -171 451
-198 121 -23 356 -16 465 14 194 53 375 157 509 291 206 206 307 441 317 740
6 174 -16 303 -74 440 -66 154 -113 223 -240 352 -231 236 -568 354 -898 317z
m309 -44 c387 -68 713 -351 829 -720 39 -124 51 -220 44 -358 -14 -278 -112
-502 -307 -698 -98 -99 -174 -152 -303 -214 -144 -69 -249 -96 -402 -102 -204
-9 -348 23 -531 114 -123 61 -205 125 -299 229 -181 203 -271 408 -283 639
-23 480 262 906 717 1069 152 55 363 71 535 41z"/>
<path d="M983 2097 c-38 -6 -63 -15 -63 -22 0 -14 47 -8 56 7 3 5 13 3 22 -4
10 -8 13 -9 9 -1 -11 17 69 27 167 21 45 -3 68 -2 51 2 -42 11 -168 9 -242 -3z"/>
<path d="M1290 2083 c8 -2 22 -7 30 -10 8 -4 21 -5 29 -4 7 1 11 -1 8 -6 -3
-4 10 -9 29 -10 55 -4 39 13 -23 26 -58 11 -103 14 -73 4z"/>
<path d="M1012 2049 c3 -10 32 -16 104 -20 54 -4 125 -10 157 -14 47 -6 57 -5
57 8 0 19 -33 25 -194 33 -108 6 -128 5 -124 -7z"/>
<path d="M876 2028 c-11 -6 -45 -10 -76 -9 -48 2 -61 -2 -92 -26 -20 -15 -80
-62 -134 -103 -145 -109 -202 -169 -210 -220 -4 -23 -17 -57 -30 -76 -34 -50
-30 -58 10 -21 21 19 39 49 46 75 14 54 53 98 154 175 45 34 107 83 139 109
64 53 91 63 142 54 25 -5 42 -2 57 9 13 8 31 15 41 15 24 0 16 24 -9 27 -10 2
-28 -2 -38 -9z"/>
<path d="M1380 1997 c-42 -20 -59 -22 -266 -22 -197 0 -224 -2 -241 -18 -11
-9 -42 -25 -69 -34 -102 -34 -241 -130 -337 -232 -49 -52 -78 -95 -111 -164
-47 -100 -95 -253 -102 -332 -3 -27 -10 -66 -16 -86 -9 -31 -6 -44 21 -106 17
-39 43 -108 58 -154 32 -101 67 -161 105 -184 16 -9 49 -47 72 -83 79 -123
168 -190 301 -227 33 -9 74 -25 90 -34 25 -14 61 -17 230 -16 193 0 203 1 279
28 122 43 317 163 340 209 10 20 28 29 84 44 6 2 12 13 12 24 0 25 37 100 96
195 60 97 75 144 81 257 7 108 -8 225 -38 301 -11 26 -19 58 -19 70 0 13 -15
43 -32 67 -18 24 -58 84 -88 134 -48 79 -65 98 -134 147 -121 87 -181 120
-225 126 -25 4 -49 15 -66 33 l-27 28 24 7 c50 16 78 6 166 -57 48 -35 123
-85 168 -111 100 -58 110 -69 140 -152 27 -74 77 -148 112 -164 21 -10 23 -9
20 11 -2 13 -8 23 -15 23 -18 0 -64 74 -85 139 -27 82 -48 106 -141 161 -45
27 -120 77 -167 111 -125 92 -146 98 -220 61z m-334 -51 c16 3 66 1 110 -5 48
-7 99 -8 132 -2 50 8 55 7 85 -22 33 -31 65 -47 108 -52 40 -5 175 -93 244
-157 57 -53 70 -82 27 -59 -12 6 -33 11 -49 11 -15 0 -41 9 -58 20 -16 11 -37
20 -46 20 -8 0 -23 6 -34 13 -15 12 -16 19 -7 45 9 25 7 33 -7 46 -19 17 -41
21 -41 7 0 -5 7 -14 15 -21 11 -9 12 -16 4 -26 -18 -22 -6 -67 21 -80 14 -6
45 -21 70 -33 25 -11 56 -21 68 -21 13 0 38 -14 55 -30 18 -17 42 -40 55 -52
54 -51 120 -189 138 -288 l14 -75 -6 61 c-7 86 -37 165 -100 261 -37 57 -61
84 -79 89 -34 9 -32 22 4 20 24 -1 35 -9 52 -41 13 -22 35 -56 50 -75 31 -38
75 -162 90 -250 9 -54 12 -180 4 -230 -2 -14 -4 -31 -4 -38 -2 -25 -44 -29
-116 -11 -100 25 -165 32 -165 20 0 -6 19 -12 43 -12 23 -1 32 -4 20 -6 -12
-2 -27 -11 -33 -19 -19 -22 -27 -17 -34 20 -8 43 -42 86 -67 86 -28 0 -23 -25
9 -48 29 -22 30 -31 21 -184 -3 -45 1 -63 17 -85 27 -37 102 -75 133 -68 21 5
23 3 17 -17 -3 -13 -6 -29 -6 -35 0 -7 -7 -13 -15 -13 -26 0 -75 -29 -75 -45
0 -18 -174 -134 -260 -173 -61 -28 -119 -43 -217 -56 -35 -5 -41 -4 -37 9 4
11 -3 19 -24 26 -24 8 -35 21 -48 57 -30 85 -95 116 -154 75 -62 -42 -71 -122
-16 -137 59 -16 96 5 96 54 0 29 -28 49 -50 35 -16 -10 -12 -35 5 -29 17 7 19
-4 6 -24 -11 -18 -41 -12 -55 11 -22 35 38 86 88 73 26 -6 34 -19 52 -81 5
-16 24 -40 43 -52 l33 -22 -118 6 c-102 5 -135 11 -230 43 -60 20 -129 49
-153 64 -63 40 -102 78 -96 93 2 8 1 12 -4 9 -9 -6 -39 32 -65 82 -9 17 -35
44 -57 59 -48 32 -68 67 -104 188 -15 50 -40 114 -56 143 -21 37 -27 57 -21
70 5 9 12 44 15 77 7 69 66 285 78 285 5 0 4 -12 -2 -27 -11 -30 -15 -106 -5
-121 3 -5 -3 -17 -14 -27 -39 -35 -21 -124 29 -150 117 -60 219 86 118 171
-26 22 -38 25 -74 21 l-43 -5 0 39 c0 56 19 92 44 84 12 -3 28 -7 36 -8 8 -1
21 -9 27 -19 10 -12 20 -14 40 -9 34 9 53 52 33 75 -16 20 -46 21 -54 1 -9
-24 -36 -6 -36 24 1 48 24 65 94 69 56 4 65 7 79 32 18 29 23 85 9 94 -4 2
-16 -18 -25 -45 l-18 -49 -54 0 c-43 0 -60 -5 -83 -25 -38 -32 -50 -77 -28
-110 15 -22 15 -25 1 -25 -8 0 -15 4 -15 10 0 5 -7 7 -15 4 -30 -12 -28 28 3
91 35 72 118 165 205 231 64 48 166 104 190 104 7 0 34 14 60 30 26 17 50 30
52 30 2 0 -3 -12 -11 -27 -26 -52 -13 -80 43 -87 21 -3 45 7 88 36 34 23 66
37 77 35 23 -6 35 12 17 24 -27 17 -58 9 -100 -27 -32 -26 -50 -34 -73 -32
-33 3 -33 3 -19 69 5 25 7 26 41 18 21 -5 51 -6 68 -3z m-579 -678 c16 -15 23
-33 23 -60 0 -33 -4 -40 -33 -54 -26 -13 -37 -13 -62 -3 -17 7 -32 12 -35 11
-3 0 -6 17 -8 39 -5 73 65 114 115 67z m1449 -327 l41 -6 -20 -45 c-17 -38
-21 -41 -24 -22 -3 12 -20 38 -38 58 -19 20 -26 32 -17 28 9 -4 35 -10 58 -13z
m-65 -30 c38 -39 40 -96 4 -157 -31 -53 -53 -60 -107 -36 -60 26 -73 46 -73
109 0 49 3 58 33 84 45 41 102 41 143 0z"/>
<path d="M1203 1897 c-68 -38 -94 -143 -51 -207 43 -64 125 -87 191 -55 97 47
101 190 8 252 -38 26 -111 31 -148 10z m127 -32 c53 -27 73 -91 46 -143 -34
-66 -98 -88 -154 -52 -125 78 -23 263 108 195z"/>
<path d="M1308 1833 c18 -16 32 -36 32 -45 0 -10 5 -18 10 -18 6 0 10 8 10 18
0 21 -35 56 -65 66 -13 4 -9 -3 13 -21z"/>
<path d="M1299 1721 c-13 -11 -21 -23 -17 -27 5 -4 16 0 26 9 10 10 24 17 30
17 6 0 14 5 17 10 11 18 -32 11 -56 -9z"/>
<path d="M1018 1817 c-39 -50 -72 -55 -109 -17 -32 31 -62 37 -128 24 -45 -9
-27 -24 29 -24 71 0 102 -29 102 -95 1 -28 7 -62 14 -77 20 -39 17 -42 -12
-19 -18 14 -41 21 -70 21 -64 0 -93 15 -100 50 -4 16 -12 30 -19 30 -7 0 -15
6 -18 14 -4 11 -19 14 -53 11 -55 -5 -71 -15 -23 -15 61 0 79 -10 79 -40 0
-45 49 -80 113 -80 35 0 62 -7 82 -20 56 -37 84 -15 54 42 -6 12 -12 43 -13
69 -1 46 0 48 36 58 21 7 46 24 58 41 17 24 26 29 47 24 21 -6 24 -3 21 12 -2
13 -13 20 -33 22 -24 2 -35 -4 -57 -31z"/>
<path d="M1447 1786 c3 -12 14 -28 25 -35 18 -11 20 -11 14 4 -3 9 -6 20 -6
23 0 4 -8 12 -18 19 -17 10 -18 8 -15 -11z"/>
<path d="M649 1772 c-22 -19 -22 -19 43 -18 37 1 69 -2 73 -6 4 -4 10 -21 14
-39 8 -42 31 -57 65 -41 30 13 35 51 10 76 -21 21 -38 20 -29 -1 16 -40 17
-53 3 -53 -8 0 -18 16 -24 37 -6 24 -18 42 -34 50 -37 19 -94 16 -121 -5z"/>
<path d="M1071 1766 c-7 -13 -24 -29 -37 -36 -13 -7 -21 -17 -17 -23 3 -5 -3
-6 -15 -3 -13 5 -22 1 -26 -10 -4 -12 -2 -15 9 -10 20 7 19 -4 -2 -20 -17 -12
-16 -13 5 -14 12 0 22 4 22 9 0 5 17 28 38 51 37 42 58 80 43 80 -4 0 -13 -11
-20 -24z"/>
<path d="M1490 1673 c-8 -3 -27 -17 -42 -31 -38 -35 -39 -97 -2 -141 26 -31
54 -41 54 -19 0 6 -9 22 -21 34 -39 41 -24 105 29 125 13 5 22 14 20 21 -5 14
-18 18 -38 11z"/>
<path d="M1044 1635 c-7 -18 3 -35 21 -35 15 0 28 27 19 41 -8 14 -34 11 -40
-6z"/>
<path d="M1540 1621 c0 -5 -11 -12 -25 -15 -14 -4 -25 -12 -25 -19 0 -25 24
-37 71 -37 49 0 72 -15 48 -31 -8 -5 -25 -9 -39 -9 -26 0 -50 -16 -50 -33 0
-11 74 -1 101 14 50 27 1 95 -59 83 -21 -4 -32 -3 -32 5 0 6 9 11 19 11 19 0
35 23 24 34 -10 9 -33 7 -33 -3z"/>
<path d="M1150 1605 c0 -8 4 -15 9 -15 5 0 16 -3 25 -6 26 -10 18 12 -9 24
-21 10 -25 9 -25 -3z"/>
<path d="M1240 1574 c14 -3 48 -12 77 -20 43 -12 51 -19 48 -35 -2 -11 0 -17
5 -14 4 3 11 -1 14 -7 2 -7 4 -3 2 8 -5 48 -27 62 -101 68 -38 2 -59 2 -45 0z"/>
<path d="M637 1542 c-30 -12 -40 -13 -46 -3 -6 9 -17 10 -42 3 -19 -6 -27 -11
-18 -11 9 -1 22 -8 30 -17 8 -10 23 -14 41 -12 37 6 36 -5 -3 -19 -33 -13 -36
-41 -4 -35 30 6 135 81 135 97 0 19 -43 18 -93 -3z"/>
<path d="M1087 1539 c-29 -17 -49 -68 -43 -105 9 -43 57 -84 99 -84 46 0 94
32 102 69 9 41 -10 96 -40 115 -27 18 -91 21 -118 5z m81 -25 c12 -4 29 -19
38 -35 31 -62 -40 -122 -95 -81 -34 25 -39 70 -11 100 22 23 31 25 68 16z"/>
<path d="M1118 1486 c-45 -34 -3 -101 48 -77 31 14 34 65 5 81 -25 13 -32 12
-53 -4z m49 -22 c8 -20 -17 -36 -34 -22 -10 8 -10 14 -2 24 15 18 28 18 36 -2z"/>
<path d="M1689 1534 c-10 -13 -10 -17 1 -24 18 -11 30 -3 30 21 0 23 -13 25
-31 3z"/>
<path d="M926 1521 c-9 -15 18 -41 54 -51 l35 -10 -38 35 c-41 38 -43 39 -51
26z"/>
<path d="M726 1487 c-39 -51 -59 -117 -36 -117 6 0 19 19 29 43 10 23 28 51
40 61 11 11 21 25 21 33 0 24 -28 14 -54 -20z"/>
<path d="M823 1473 c-32 -6 -91 -76 -98 -117 -14 -73 37 -148 111 -162 73 -13
144 14 130 51 -5 15 -9 14 -32 -4 -34 -27 -73 -27 -119 0 -42 25 -55 46 -55
90 0 39 38 99 62 99 9 0 19 4 22 9 6 9 64 0 85 -13 24 -15 43 -69 38 -107 -3
-26 -1 -39 8 -43 31 -11 34 84 5 131 -33 54 -94 80 -157 66z"/>
<path d="M1342 1457 c2 -17 -6 -32 -30 -52 -64 -54 -32 -150 55 -162 37 -5 45
-2 73 25 24 24 30 39 30 72 0 48 -34 90 -74 90 -21 0 -25 4 -23 22 1 15 -4 23
-16 26 -15 3 -18 -1 -15 -21z m72 -73 c25 -25 24 -72 -2 -91 -38 -30 -102 -3
-102 44 0 50 69 82 104 47z"/>
<path d="M1336 1359 c-13 -19 -13 -24 1 -45 8 -13 20 -24 25 -24 23 0 48 23
48 43 0 47 -48 63 -74 26z m44 -13 c0 -18 -16 -29 -30 -21 -13 8 -1 35 16 35
8 0 14 -6 14 -14z"/>
<path d="M1663 1439 c-63 -18 -103 -97 -89 -174 25 -133 220 -154 272 -29 31
74 0 160 -70 193 -46 23 -64 24 -113 10z m121 -48 c26 -22 46 -74 41 -102 -14
-73 -44 -99 -114 -99 -32 0 -45 6 -71 37 -29 33 -32 41 -28 85 3 27 13 57 23
68 36 40 109 45 149 11z"/>
<path d="M1673 1378 c-12 -6 -27 -24 -34 -41 -11 -26 -10 -35 7 -66 10 -20 28
-37 39 -40 17 -3 16 0 -7 24 -46 46 -32 101 30 120 31 9 76 -20 69 -46 -3 -10
-1 -17 3 -14 5 3 11 -1 13 -7 3 -7 6 -3 6 10 2 53 -70 87 -126 60z"/>
<path d="M870 1425 c0 -4 7 -13 15 -21 8 -9 15 -12 15 -7 0 11 27 -42 33 -64
3 -10 5 -4 6 14 0 17 -6 39 -15 47 -19 19 -54 39 -54 31z"/>
<path d="M625 1401 c-8 -15 1 -28 24 -34 16 -4 18 -1 12 16 -9 24 -26 33 -36
18z"/>
<path d="M575 1379 c-4 -5 -11 -6 -17 -3 -7 4 -8 2 -4 -4 4 -7 2 -12 -4 -12
-19 0 -34 -46 -20 -66 6 -11 10 -12 7 -4 -8 27 12 59 45 73 25 10 29 15 15 20
-9 3 -19 2 -22 -4z"/>
<path d="M790 1361 c-6 -16 -9 -39 -5 -51 10 -31 46 -60 74 -60 25 0 25 1 -7
17 -41 20 -56 46 -49 89 7 42 3 43 -13 5z"/>
<path d="M1220 1345 c-1 -5 -2 -14 -1 -19 1 -5 -2 -12 -7 -15 -14 -9 -25 -51
-13 -51 17 0 33 39 28 68 -2 15 -5 23 -7 17z"/>
<path d="M1518 1306 c-10 -7 -15 -16 -11 -19 3 -4 1 -7 -5 -7 -7 0 -12 -6 -12
-13 0 -8 6 -14 14 -14 8 0 12 6 9 14 -3 7 1 15 9 18 8 3 15 12 15 20 0 8 -1
15 -1 15 -1 0 -9 -7 -18 -14z"/>
<path d="M600 1285 c-10 -12 -10 -21 -2 -40 18 -39 82 -31 82 9 0 43 -53 63
-80 31z m58 -18 c2 -12 -3 -17 -17 -17 -12 0 -21 6 -21 13 0 31 32 34 38 4z"/>
<path d="M1061 1236 c-59 -33 -67 -102 -17 -152 63 -63 151 -35 163 53 5 39 2
46 -30 78 -38 38 -74 45 -116 21z m105 -73 c3 -18 4 -39 1 -48 -9 -22 -57 -30
-86 -14 -45 25 -37 99 10 99 23 0 25 -18 4 -26 -23 -9 -18 -26 8 -22 18 2 22
9 21 35 -2 29 0 31 17 20 10 -6 22 -26 25 -44z"/>
<path d="M1280 1236 c0 -9 11 -34 25 -54 16 -23 25 -30 25 -20 0 10 -11 34
-25 54 -16 23 -25 30 -25 20z"/>
<path d="M1458 1220 c-3 -16 -2 -30 1 -30 17 1 33 20 29 35 -5 31 -25 28 -30
-5z"/>
<path d="M550 1175 c0 -15 -10 -43 -21 -62 -27 -43 -18 -54 11 -14 21 30 30
84 17 98 -4 3 -7 -6 -7 -22z"/>
<path d="M940 1180 c-8 -5 -23 -10 -33 -10 -23 0 -77 -49 -77 -69 1 -15 2 -15
13 0 7 8 36 28 65 44 28 15 52 32 52 37 0 10 -1 10 -20 -2z"/>
<path d="M1253 1174 c-7 -19 11 -39 26 -30 16 10 13 33 -4 40 -9 3 -18 -1 -22
-10z"/>
<path d="M1480 1170 c0 -20 36 -43 53 -33 15 9 6 30 -18 41 -34 16 -35 15 -35
-8z"/>
<path d="M1886 1164 c-8 -21 9 -51 34 -59 27 -9 40 1 40 30 0 38 -61 62 -74
29z"/>
<path d="M685 1163 c-44 -9 -73 -25 -85 -49 -11 -20 -11 -27 5 -44 28 -31 73
-34 135 -10 55 21 70 34 70 57 0 27 -78 55 -125 46z m75 -43 c12 -7 7 -12 -24
-25 -40 -17 -102 -17 -100 0 3 27 92 46 124 25z"/>
<path d="M1587 1139 c-9 -5 -23 -7 -30 -4 -6 4 -3 -1 8 -9 11 -9 26 -14 34
-11 9 3 12 3 8 -1 -4 -4 14 -15 40 -24 40 -14 49 -21 53 -46 4 -23 7 -25 12
-11 4 9 5 24 2 32 -4 8 0 23 7 32 12 15 12 16 -3 10 -10 -3 -37 5 -63 19 -25
13 -47 24 -48 24 -1 0 -10 -5 -20 -11z"/>
<path d="M1801 1137 c-14 -6 -26 -19 -29 -27 -3 -12 -2 -12 9 1 17 20 49 32
49 19 0 -6 -5 -10 -11 -10 -5 0 -8 -4 -5 -9 7 -11 44 -3 53 12 3 5 0 7 -8 5
-8 -3 -18 1 -24 8 -8 11 -15 11 -34 1z"/>
<path d="M1310 1112 c-74 -41 -99 -120 -60 -189 28 -50 66 -73 122 -73 87 0
145 68 135 158 -7 63 -50 103 -127 117 -25 4 -45 0 -70 -13z m104 -26 c43 -18
66 -51 66 -96 0 -66 -76 -123 -134 -100 -93 35 -102 149 -16 192 42 22 42 22
84 4z"/>
<path d="M1357 1069 c-39 -10 -57 -27 -57 -52 0 -20 1 -20 17 3 22 32 33 40
60 40 27 0 63 -36 63 -64 0 -15 3 -17 11 -9 9 9 7 20 -7 44 -22 37 -48 49 -87
38z"/>
<path d="M1300 967 c0 -19 46 -60 62 -54 8 3 3 9 -14 17 -16 7 -28 19 -28 26
0 7 -4 16 -10 19 -5 3 -10 0 -10 -8z"/>
<path d="M1408 952 c-28 -17 -36 -32 -19 -32 6 0 23 11 38 25 32 28 21 33 -19
7z"/>
<path d="M883 1087 c-32 -7 -43 -15 -43 -28 0 -14 7 -19 30 -19 17 0 42 -7 56
-16 34 -23 43 -9 14 21 -19 20 -20 25 -7 25 23 0 57 -48 57 -81 0 -35 -4 -36
-42 -4 -31 26 -49 28 -56 7 -3 -10 81 -72 99 -72 4 0 15 7 23 16 37 37 2 133
-56 153 -17 6 -31 10 -32 10 -1 -1 -20 -6 -43 -12z"/>
<path d="M320 1051 c0 -33 35 -58 73 -52 11 2 8 -12 -8 -33 -9 -12 -15 -42
-15 -78 0 -49 4 -62 30 -91 38 -44 79 -61 127 -53 21 3 59 9 86 12 26 4 50 10
52 15 9 13 -29 29 -46 18 -7 -5 -17 -9 -20 -9 -8 0 -4 38 4 46 10 11 9 24 -3
24 -5 0 -12 -11 -16 -24 -6 -27 -42 -46 -86 -46 -46 0 -98 59 -98 111 0 45 13
75 44 100 76 63 186 -3 173 -102 -3 -22 -1 -42 5 -45 18 -12 29 20 25 74 -4
62 -39 106 -97 123 -38 11 -113 -1 -125 -21 -13 -20 -46 -9 -63 20 -19 34 -42
40 -42 11z"/>
<path d="M1796 1055 c-11 -30 85 -66 123 -45 30 15 28 45 -1 35 -36 -12 -68
-8 -87 9 -22 20 -27 20 -35 1z"/>
<path d="M806 1034 c-4 -9 7 -39 24 -69 20 -36 32 -71 35 -111 3 -32 9 -62 14
-67 12 -12 25 11 13 26 -15 20 -20 53 -9 72 7 13 6 16 -3 10 -8 -5 -11 -1 -8
11 2 11 10 18 17 16 7 -1 10 2 6 8 -5 8 -11 7 -22 -1 -12 -11 -14 -10 -13 2 4
28 0 40 -12 33 -8 -5 -9 -2 -5 9 3 10 2 17 -3 17 -6 0 -10 11 -10 24 0 30 -15
42 -24 20z"/>
<path d="M1578 995 c-3 -5 -9 -24 -12 -40 -4 -17 -18 -44 -32 -60 -14 -17 -22
-23 -18 -15 4 8 -16 -9 -43 -38 -44 -47 -55 -53 -84 -51 -32 3 -41 -1 -38 -18
1 -5 1 -16 0 -25 -2 -12 4 -18 16 -17 10 0 13 3 6 6 -25 10 -12 23 22 23 19 0
35 -4 35 -10 0 -5 -6 -10 -12 -10 -9 0 -8 -4 2 -10 23 -15 28 -12 22 15 -3 20
7 35 60 85 42 39 69 73 77 98 13 37 12 87 -1 67z"/>
<path d="M459 977 c-24 -18 -39 -52 -39 -87 0 -39 47 -90 82 -89 l23 0 -23 10
c-52 20 -77 71 -61 119 6 17 19 34 28 39 24 13 66 2 90 -23 19 -21 21 -24 21
-48 0 -8 3 -9 10 -2 15 15 -3 58 -32 78 -26 19 -76 20 -99 3z"/>
<path d="M1060 979 c0 -5 12 -11 28 -15 44 -9 112 -46 105 -57 -3 -6 -1 -7 5
-3 28 17 -25 58 -96 75 -24 5 -42 5 -42 0z"/>
<path d="M762 927 c-24 -25 -44 -102 -35 -135 5 -22 19 -27 48 -16 42 17 61
126 27 157 -17 16 -20 16 -40 -6z m14 -94 l-15 -28 -1 27 c0 15 5 39 12 55
l12 28 4 -27 c2 -15 -4 -40 -12 -55z"/>
<path d="M1210 879 c0 -7 10 -23 22 -36 15 -17 21 -35 20 -68 0 -25 1 -45 3
-45 41 0 48 68 12 121 -23 34 -57 51 -57 28z"/>
<path d="M570 870 c0 -6 -11 -16 -25 -22 -27 -12 -33 -28 -12 -28 14 0 57 41
57 53 0 4 -4 7 -10 7 -5 0 -10 -5 -10 -10z"/>
<path d="M1045 860 c-21 -23 -23 -69 -4 -81 19 -11 35 7 21 23 -8 10 -6 20 8
38 11 14 20 28 20 33 0 14 -27 7 -45 -13z"/>
<path d="M1136 838 c4 -18 8 -44 9 -58 2 -35 29 -32 33 4 4 36 -16 86 -35 86
-11 0 -13 -7 -7 -32z"/>
<path d="M1508 769 c-34 -19 -12 -89 27 -89 32 0 66 20 63 38 -2 9 -10 16 -16
15 -7 -2 -12 4 -12 12 0 8 -9 19 -19 25 -23 12 -22 12 -43 -1z m52 -34 c0 -19
-20 -29 -32 -17 -15 15 -2 43 17 36 8 -3 15 -12 15 -19z"/>
<path d="M1069 721 c-24 -24 -29 -38 -29 -76 0 -38 5 -52 29 -76 81 -81 217
13 179 123 -15 42 -78 77 -78 43 0 -8 5 -15 11 -15 15 0 41 -69 35 -94 -6 -23
-54 -56 -80 -56 -10 0 -28 11 -41 25 -35 34 -33 74 5 110 17 16 30 32 30 37 0
18 -33 6 -61 -21z"/>
<path d="M733 724 c-47 -23 -73 -71 -73 -132 0 -43 5 -57 30 -85 34 -40 101
-63 150 -52 78 17 134 110 111 185 -10 32 -51 85 -51 66 0 -5 -16 1 -36 13
-42 25 -87 26 -131 5z m140 -29 c23 -10 47 -56 47 -90 0 -34 -24 -80 -52 -99
-51 -36 -135 -10 -167 51 -24 46 -2 111 47 137 27 15 92 16 125 1z"/>
<path d="M746 659 c-35 -41 -34 -83 3 -120 28 -28 71 -40 71 -19 0 6 -9 10
-20 10 -54 0 -80 88 -37 128 42 40 87 22 111 -44 l15 -39 0 36 c2 77 -92 109
-143 48z"/>
<path d="M1290 701 c0 -17 34 -22 49 -6 14 13 12 15 -17 15 -18 0 -32 -4 -32
-9z"/>
<path d="M1130 685 c-26 -31 13 -82 44 -56 19 16 21 42 4 59 -16 16 -33 15
-48 -3z"/>
<path d="M557 683 c-13 -12 -7 -33 8 -33 12 0 13 -4 5 -19 -5 -11 -10 -28 -10
-38 1 -10 10 4 20 31 11 27 17 53 14 58 -6 10 -28 11 -37 1z"/>
<path d="M1440 662 c0 -14 74 -42 113 -42 60 0 77 -10 77 -41 0 -37 -40 -60
-71 -41 -16 10 -19 9 -19 -3 0 -9 11 -20 24 -26 50 -23 106 29 106 99 0 30 -2
32 -37 32 -21 1 -58 5 -83 11 -95 20 -110 22 -110 11z"/>
<path d="M1744 646 c-5 -6 -21 -19 -35 -28 l-24 -17 33 11 c19 6 36 17 39 25
7 19 1 24 -13 9z"/>
<path d="M1354 644 c-12 -3 -34 -19 -50 -35 -52 -54 -34 -157 34 -188 78 -37
182 13 182 86 0 89 -81 155 -166 137z m101 -58 c54 -54 42 -117 -25 -137 -36
-11 -44 -10 -68 8 -37 27 -42 83 -11 112 13 12 18 21 12 21 -16 0 -35 -27 -43
-63 l-8 -32 -1 34 c-2 75 90 111 144 57z"/>
<path d="M1368 569 c-10 -5 -18 -18 -18 -28 0 -49 74 -52 86 -5 10 39 -28 57
-68 33z"/>
<path d="M1197 495 c-15 -8 -35 -11 -45 -8 -14 5 -15 4 -4 -8 10 -11 16 -11
32 -1 11 6 27 12 35 12 8 0 15 5 15 10 0 13 0 13 -33 -5z"/>
<path d="M1202 448 c2 -12 10 -23 18 -23 22 0 19 39 -3 43 -15 3 -18 -1 -15
-20z"/>
<path d="M387 1252 c-34 -37 -15 -82 33 -82 49 0 68 51 32 83 -24 22 -45 21
-65 -1z m61 -30 c-2 -9 -15 -19 -30 -23 -23 -6 -26 -4 -22 14 2 11 9 24 15 28
18 11 40 -1 37 -19z"/>
<path d="M1719 891 c-16 -16 -29 -37 -29 -45 0 -25 10 -19 21 13 8 21 21 33
45 41 41 14 60 3 81 -47 15 -37 23 -42 23 -14 0 11 -12 33 -26 50 -34 41 -75
42 -115 2z"/>
<path d="M608 1964 c-32 -19 -58 -39 -58 -44 0 -6 -7 -10 -15 -10 -8 0 -15 -4
-15 -10 0 -5 -7 -10 -16 -10 -8 0 -12 -5 -9 -11 4 -6 19 0 40 15 19 15 36 26
39 26 3 0 16 10 29 23 14 12 35 30 48 39 38 27 19 19 -43 -18z"/>
<path d="M1596 1983 c-6 -6 35 -34 101 -68 18 -10 30 -21 27 -26 -3 -5 -1 -9
5 -9 30 0 14 23 -41 57 -87 54 -84 53 -92 46z"/>
<path d="M1754 1868 c-4 -6 -3 -8 3 -5 6 4 23 -5 37 -18 29 -27 46 -32 46 -13
0 6 -3 9 -6 5 -3 -3 -18 5 -32 19 -30 27 -38 29 -48 12z"/>
<path d="M367 1795 c-26 -37 -10 -54 18 -19 21 27 24 44 7 44 -4 0 -15 -12
-25 -25z"/>
<path d="M1890 1771 c0 -4 9 -16 20 -26 11 -10 20 -24 20 -32 0 -7 7 -16 15
-19 8 -4 15 -12 15 -20 0 -8 3 -14 8 -14 12 0 42 -61 35 -72 -3 -7 -1 -8 5 -4
6 4 18 -6 27 -24 8 -16 12 -30 8 -30 -5 0 -2 -4 6 -9 7 -5 15 -30 18 -57 7
-69 12 -83 23 -63 14 24 -49 209 -72 209 -5 0 -7 4 -4 8 3 5 -2 18 -12 29 -9
10 -22 28 -29 39 -6 10 -16 18 -23 16 -6 -1 -9 2 -5 8 3 5 -8 23 -25 40 -16
16 -30 26 -30 21z"/>
<path d="M257 1688 c-27 -35 -34 -58 -18 -58 12 0 53 70 48 83 -2 6 -15 -5
-30 -25z"/>
<path d="M236 1573 c9 -37 14 -44 24 -38 5 3 8 19 8 35 -1 22 -6 30 -20 30
-15 0 -17 -5 -12 -27z"/>
<path d="M247 1497 c-8 -12 -33 -73 -56 -135 -54 -146 -55 -210 -7 -403 42
-171 105 -306 153 -329 20 -10 37 -29 49 -55 24 -57 176 -204 244 -237 30 -15
96 -40 145 -56 50 -16 109 -40 133 -52 40 -21 55 -23 190 -21 252 3 355 29
537 140 33 20 74 43 90 52 37 20 99 99 87 111 -13 13 -35 1 -53 -30 -15 -26
-132 -104 -234 -154 -122 -61 -262 -88 -455 -88 -96 0 -110 3 -165 29 -33 17
-100 42 -149 57 -51 16 -113 44 -147 66 -69 47 -171 155 -196 209 -11 24 -28
42 -45 48 -20 7 -37 29 -63 81 -55 109 -71 156 -99 289 -28 131 -31 184 -16
241 14 54 74 206 89 224 13 15 8 36 -8 36 -5 0 -15 -10 -24 -23z"/>
<path d="M2028 1483 c7 -3 12 -23 12 -49 0 -24 5 -44 10 -44 6 0 9 22 8 50 -2
43 -5 50 -23 49 -11 0 -14 -3 -7 -6z"/>
<path d="M2023 1354 c-3 -9 2 -30 12 -46 24 -41 32 -184 15 -285 -14 -94 -43
-169 -115 -301 -30 -55 -57 -112 -61 -127 -4 -14 -13 -29 -20 -32 -19 -7 -18
-23 1 -23 30 0 169 249 207 370 31 101 34 337 5 413 -19 49 -33 59 -44 31z"/>
<path d="M130 816 c0 -22 22 -80 36 -96 12 -12 14 -12 14 3 0 35 -25 107 -37
107 -7 0 -13 -6 -13 -14z"/>
<path d="M2057 725 c-9 -27 -15 -50 -13 -53 7 -7 37 70 34 86 -2 8 -11 -7 -21
-33z"/>
<path d="M1958 548 c-43 -46 -64 -76 -58 -82 12 -12 49 21 97 86 56 77 33 74
-39 -4z"/>
<path d="M386 415 c-8 -22 147 -155 181 -155 23 0 14 15 -19 35 -42 24 -139
115 -133 125 2 3 -2 7 -10 7 -8 0 -16 -6 -19 -12z"/>
<path d="M1636 306 c-24 -14 -34 -26 -27 -30 12 -8 81 30 81 45 0 14 -12 11
-54 -15z"/>
<path d="M1478 231 c-98 -41 -120 -56 -67 -48 46 7 169 63 169 76 0 15 -2 14
-102 -28z"/>
<path d="M616 239 c9 -10 23 -19 30 -19 7 0 19 -6 26 -13 7 -7 22 -16 33 -19
11 -4 47 -16 80 -28 92 -33 246 -60 338 -59 l82 2 -100 7 c-174 13 -325 53
-443 115 -45 24 -59 28 -46 14z"/>
<path d="M1496 193 c-44 -20 -126 -45 -182 -56 -108 -21 -133 -44 -35 -32 107
12 321 89 321 114 0 17 -18 12 -104 -26z"/>
</g>
</svg>
